<svg id="Layer_1" data-name="Layer 1" xmlns="http://www.w3.org/2000/svg" viewBox="0 0 164.16 245.17"><defs><style>.cls-1{fill:#49a2b7;}.cls-2{fill:#e53d46;}</style></defs><title>ehealth</title><path d="M224.4,257.8" transform="translate(-163.84 -12.94)"/><path class="cls-1" d="M182.1,161.44H170.5a6.61,6.61,0,0,1-6.66-6.66V93.34H182.1v68.1Z" transform="translate(-163.84 -12.94)"/><path class="cls-1" d="M245.88,209a55.06,55.06,0,0,1-55-55V93.16H300.91V154A55,55,0,0,1,245.88,209Zm-41-101.86V154a41,41,0,1,0,82,0V107.18Z" transform="translate(-163.84 -12.94)"/><polygon class="cls-2" points="101.77 124.61 87.66 124.61 87.66 110.51 73.64 110.51 73.64 124.61 59.54 124.61 59.54 138.63 73.64 138.63 73.64 152.74 87.66 152.74 87.66 138.63 101.77 138.63 101.77 124.61"/><path class="cls-1" d="M309.74,161.44h11.6a6.61,6.61,0,0,0,6.66-6.66V93.34H309.74Z" transform="translate(-163.84 -12.94)"/><circle class="cls-2" cx="80.65" cy="60.49" r="15.06"/><path class="cls-1" d="M222.16,71.36H203.73A41.23,41.23,0,0,1,230,37.52V22.81a55.18,55.18,0,0,0-40.5,53.05v9.43h36.18a22.14,22.14,0,0,1-3.55-12.12A6.6,6.6,0,0,1,222.16,71.36Z" transform="translate(-163.84 -12.94)"/><path class="cls-1" d="M259,22.81V37.52a41.23,41.23,0,0,1,26.22,33.84H266.82a15,15,0,0,1,.08,1.9,22.35,22.35,0,0,1-3.54,12.12h36.17V75.94A55.21,55.21,0,0,0,259,22.81Z" transform="translate(-163.84 -12.94)"/><rect class="cls-2" x="73.47" width="14.37" height="41.19"/><path class="cls-2" d="M169,236.23H164.3v-4.72h14.44v4.72h-4.69V257.8H169Z" transform="translate(-163.84 -12.94)"/><path class="cls-2" d="M179.75,244.46c0-1.91-.08-4-.16-5.73H184l.27,2.77h.12c.86-2,2.38-3.08,3.78-3.08a4.74,4.74,0,0,1,1.09.07v5.07a5.11,5.11,0,0,0-1.09-.07,3.41,3.41,0,0,0-3.12,2.73,7.63,7.63,0,0,0-.19,1.91v9.67h-5.15Z" transform="translate(-163.84 -12.94)"/><path class="cls-2" d="M199.79,257.8l-.27-1.87h-.08a5,5,0,0,1-4.21,2.18c-2.89,0-5-2.42-5-5.81,0-5,4.41-7.06,8.74-7.1v-.43a2.43,2.43,0,0,0-2.69-2.57,7.19,7.19,0,0,0-3.91,1.09l-.93-3.43a12.45,12.45,0,0,1,5.93-1.44c5.81,0,6.74,4.05,6.74,7.91v7.1a25,25,0,0,0,.32,4.37Zm-.7-9.28c-1.71,0-4.05.58-4.05,3.23,0,1.92,1.05,2.62,1.83,2.62a2.23,2.23,0,0,0,2.11-1.64,3.7,3.7,0,0,0,.11-.9Z" transform="translate(-163.84 -12.94)"/><path class="cls-2" d="M218.28,257.49A9.12,9.12,0,0,1,215,258c-4.83,0-8-3.35-8-9.59,0-5.89,3.47-10,8.73-10a7.62,7.62,0,0,1,2.81.5l-.66,4a5.27,5.27,0,0,0-1.91-.35c-2.46,0-3.9,2.34-3.9,5.65,0,3.47,1.44,5.58,3.82,5.58a4.2,4.2,0,0,0,1.91-.39Z" transform="translate(-163.84 -12.94)"/><path class="cls-2" d="M225.38,247.07h.08a24.78,24.78,0,0,1,1-2.65l2.46-5.69h5.5l-4.6,8,4.87,11.08H229L226.24,250l-.86,1.64v6.2h-5.11v-27h5.11Z" transform="translate(-163.84 -12.94)"/><path class="cls-2" d="M242,231.51V242h5.35V231.51h5.1V257.8h-5.1v-11H242v11h-5.11V231.51Z" transform="translate(-163.84 -12.94)"/><path class="cls-2" d="M260.56,250.08c.07,3,1.79,4,4.05,4a11.32,11.32,0,0,0,3.63-.62l.7,3.67a16,16,0,0,1-5.26.85c-5.19,0-8-3.43-8-9.4,0-6.39,3.32-10.21,7.65-10.21,4.09,0,6.47,3.23,6.47,9a13.26,13.26,0,0,1-.16,2.65Zm4.56-3.59c0-2.46-.62-4.37-2.15-4.37s-2.34,2.46-2.38,4.37Z" transform="translate(-163.84 -12.94)"/><path class="cls-2" d="M281.19,257.8l-.28-1.87h-.07a5,5,0,0,1-4.22,2.18c-2.88,0-5-2.42-5-5.81,0-5,4.41-7.06,8.74-7.1v-.43a2.43,2.43,0,0,0-2.69-2.57,7.15,7.15,0,0,0-3.9,1.09l-.94-3.43a12.48,12.48,0,0,1,5.93-1.44c5.81,0,6.75,4.05,6.75,7.91v7.1a25,25,0,0,0,.31,4.37Zm-.7-9.28c-1.72,0-4.06.58-4.06,3.23,0,1.92,1.05,2.62,1.83,2.62a2.22,2.22,0,0,0,2.11-1.64,3.26,3.26,0,0,0,.12-.9Z" transform="translate(-163.84 -12.94)"/><path class="cls-2" d="M289.1,230.81h5.11v27H289.1Z" transform="translate(-163.84 -12.94)"/><path class="cls-2" d="M303.88,233.58v5.15h3.75v3.63h-3.75v8.69c0,2.23.94,2.77,1.95,2.77a7.78,7.78,0,0,0,1.33-.11l0,4a11.84,11.84,0,0,1-3.12.35,5.2,5.2,0,0,1-3.67-1.2c-1.05-1-1.63-2.46-1.63-5.47v-9h-2.27v-3.63h2.27v-3.94Z" transform="translate(-163.84 -12.94)"/><path class="cls-2" d="M310,230.81h5.11v9.91h.07a6,6,0,0,1,1.64-1.64,5.16,5.16,0,0,1,2.58-.66c3.51,0,4.87,3,4.87,7.8V257.8h-5.11V246.22c0-1.88-.35-3.51-1.87-3.51-.86,0-1.6.5-2,1.79a7.4,7.4,0,0,0-.19,1.44V257.8H310Z" transform="translate(-163.84 -12.94)"/></svg>