<svg id="Layer_1" data-name="Layer 1" xmlns="http://www.w3.org/2000/svg" viewBox="0 0 164.16 196.1"><defs><style>.cls-1{fill:#f4f8f9;}.cls-2{fill:#e53d46;}</style></defs><title>ehealth-white</title><path d="M224.4,257.8" transform="translate(-163.84 -12.94)"/><path class="cls-1" d="M182.1,161.44H170.5a6.61,6.61,0,0,1-6.66-6.66V93.34H182.1v68.1Z" transform="translate(-163.84 -12.94)"/><path class="cls-1" d="M245.88,209a55.06,55.06,0,0,1-55-55V93.16H300.91V154A55,55,0,0,1,245.88,209Zm-41-101.86V154a41,41,0,1,0,82,0V107.18Z" transform="translate(-163.84 -12.94)"/><polygon class="cls-2" points="101.77 124.61 87.66 124.61 87.66 110.51 73.64 110.51 73.64 124.61 59.54 124.61 59.54 138.63 73.64 138.63 73.64 152.74 87.66 152.74 87.66 138.63 101.77 138.63 101.77 124.61"/><path class="cls-1" d="M309.74,161.44h11.6a6.61,6.61,0,0,0,6.66-6.66V93.34H309.74Z" transform="translate(-163.84 -12.94)"/><circle class="cls-2" cx="80.65" cy="60.49" r="15.06"/><path class="cls-1" d="M222.16,71.36H203.73A41.23,41.23,0,0,1,230,37.52V22.81a55.18,55.18,0,0,0-40.5,53.05v9.43h36.18a22.14,22.14,0,0,1-3.55-12.12A6.6,6.6,0,0,1,222.16,71.36Z" transform="translate(-163.84 -12.94)"/><path class="cls-1" d="M259,22.81V37.52a41.23,41.23,0,0,1,26.22,33.84H266.82a15,15,0,0,1,.08,1.9,22.35,22.35,0,0,1-3.54,12.12h36.17V75.94A55.21,55.21,0,0,0,259,22.81Z" transform="translate(-163.84 -12.94)"/><rect class="cls-2" x="73.47" width="14.37" height="41.19"/></svg>