<?xml version="1.0" encoding="utf-8"?>
<!-- Generator: Adobe Illustrator 23.0.1, SVG Export Plug-In . SVG Version: 6.00 Build 0)  -->
<svg version="1.1" id="Layer_1" xmlns="http://www.w3.org/2000/svg" xmlns:xlink="http://www.w3.org/1999/xlink" x="0px" y="0px"
	 viewBox="0 0 560 288" style="enable-background:new 0 0 560 288;" xml:space="preserve">
<style type="text/css">
	.st0{fill:#314147;}
	.st1{fill:#E53D46;}
</style>
<path d="M224.4,257.8"/>
<g>
	<path class="st0" d="M195.9,199.7h-13.4c-4.3,0-7.7-3.4-7.7-7.7V121h21.1V199.7z"/>
	<path class="st0" d="M269.6,254.7c-35.1,0-63.6-28.5-63.6-63.6v-70.3h127.2v70.3C333.3,226.2,304.7,254.7,269.6,254.7z M222.2,137
		v54.1c0,26.2,21.3,47.4,47.4,47.4s47.4-21.3,47.4-47.4V137H222.2z"/>
	<polygon class="st1" points="292.4,172.1 276.1,172.1 276.1,155.8 259.9,155.8 259.9,172.1 243.6,172.1 243.6,188.3 259.9,188.3 
		259.9,204.6 276.1,204.6 276.1,188.3 292.4,188.3 	"/>
	<path class="st0" d="M343.4,199.7h13.4c4.3,0,7.7-3.4,7.7-7.7V121h-21.1V199.7z"/>
	<circle class="st1" cx="268" cy="98" r="17.4"/>
	<g>
		<path class="st0" d="M242.2,95.6h-21.3c2-17.9,14-32.9,30.3-39.1v-17c-26.9,7.4-46.8,32.1-46.8,61.3v10.9h41.8
			c-2.6-4-4.1-8.8-4.1-14C242,97.1,242.1,96.3,242.2,95.6z"/>
		<path class="st0" d="M284.8,39.5v17c16.3,6.2,28.3,21.2,30.3,39.1h-21.3c0.1,0.7,0.1,1.5,0.1,2.2c0,5.2-1.5,9.9-4.1,14h41.8v-10.9
			C331.6,71.6,311.7,46.9,284.8,39.5z"/>
	</g>
	<rect x="259.7" y="28.1" class="st1" width="16.6" height="47.6"/>
</g>
</svg>
